<?xml version="1.0" encoding="UTF-8"?>
<svg id="Layer_1" data-name="Layer 1" xmlns="http://www.w3.org/2000/svg" viewBox="0 0 105 22.5">
  <defs>
    <style>
      .cls-1, .cls-2, .cls-3, .cls-4, .cls-5, .cls-6, .cls-7, .cls-8, .cls-9, .cls-10 {
        stroke-miterlimit: 10;
      }

      .cls-1, .cls-2, .cls-6, .cls-7, .cls-8, .cls-9 {
        stroke: #4a6cf7;
      }

      .cls-1, .cls-5 {
        stroke-width: .07px;
      }

      .cls-1, .cls-7, .cls-8 {
        fill: #4a6cf7;
      }

      .cls-2, .cls-3 {
        stroke-width: .23px;
      }

      .cls-2, .cls-3, .cls-5, .cls-6, .cls-10 {
        fill: none;
      }

      .cls-11 {
        letter-spacing: -.02em;
      }

      .cls-3, .cls-4, .cls-5, .cls-10 {
        stroke: #000;
      }

      .cls-4, .cls-7, .cls-9 {
        stroke-width: .06px;
      }

      .cls-6 {
        stroke-width: .22px;
      }

      .cls-12 {
        fill: #090e34;
        font-family: Inter-Medium, Inter;
        font-size: 19px;
        font-weight: 500;
        isolation: isolate;
      }

      .cls-8, .cls-10 {
        stroke-width: .05px;
      }
    </style>
  </defs>
  <text class="cls-12" transform="translate(31.96 17.82) scale(.92 1)"><tspan x="0" y="0">Sihac</tspan><tspan class="cls-11" x="50" y="0">o</tspan><tspan x="61.08" y="0">v</tspan></text>
  <path class="cls-9" d="m12.79,11.72h-.25c.09-.12.18-.24.25-.35v.35Z"/>
  <path class="cls-4" d="m14.55,15.31s.09.07.14.1h-.16v-.1h.01Z"/>
  <path class="cls-4" d="m14.78,9.88c-.08.04-.16.09-.23.14h0v-.15h.23Z"/>
  <path class="cls-7" d="m18.06,7.95v2.13c-.08-.05-.18-.12-.27-.16h.27v-1.88c-.56-.24-1.16-.36-1.76-.35h0c-.6,0-1.19.12-1.74.34v.02h-.12c-.34.15-.65.34-.95.56h0c-.23.19-.45.41-.65.64-.18.2-.34.41-.48.64-.35.56-.6,1.18-.71,1.84-.05.3-.08.61-.08.92v.05c0,.29.03.58.08.86.12.66.36,1.29.71,1.84.14.22.3.44.48.63.45.52,1.01.93,1.63,1.21h.12v.05c.56.22,1.15.34,1.74.34h0c.6,0,1.2-.12,1.76-.35v-1.88h-.18c.06-.03.12-.07.18-.12h0v2.04h0c-.56.23-1.15.35-1.74.35h0c-.59,0-1.18-.12-1.73-.34h0l-.24-.1c-.57-.27-1.08-.65-1.5-1.12h0l-.1-.11c-.16-.19-.3-.39-.43-.6-.35-.56-.59-1.19-.7-1.84,0-.12-.04-.23-.05-.35,0-.16,0-.32,0-.48,0-.03,0-.06,0-.09v-.46c0-.15.04-.31.06-.46.11-.66.35-1.28.7-1.84.13-.21.28-.41.44-.61l.1-.1h0c.2-.22.42-.43.65-.61.26-.2.54-.37.84-.51l.24-.11h0c.55-.22,1.14-.34,1.73-.34h0c.6,0,1.19.12,1.74.35h-.03Z"/>
  <path class="cls-10" d="m4.02,9.88v.08-.05h0v-.03Z"/>
  <path class="cls-8" d="m28.59,1.68v5.28c-.08.62-.58,1.08-1.17,1.07h-.53s-.04-.02-.05-.04V3.23s0-.09,0-.13c-.05-.34-.32-.59-.65-.58h-2.11c-.4,0-.73.33-.74.75,0,0,0,0,0,0v1.08h0v1.3c-.06.31-.32.53-.62.54h-14.2c-.34.03-.67.09-1,.19h-.04l-.16.07h-.11l-.06.03h-.1c-.12.08-.23.16-.33.25l-.04.03-.05.05c-.09.09-.18.18-.25.29v.05c-.06.08-.11.16-.16.24l-.04.06-.03.07s2542.83,1333.32-.06.14c-.03.07-.06.14-.08.21h0l-.05.16v.06c-.05.19-.08.39-.08.58,0,.04,0,.07,0,.11h0c0,.31.05.61.14.9h0c.26.79.85,1.41,1.6,1.69h0l.6.14h.37c.26,0,.52-.04.77-.12v2.07h0l-.29.05h-1.43c-.62-.12-1.21-.38-1.73-.76,0-.01,0-.03,0-.04h0l-.08-.07h0s-.04.01-.05,0c-.34-.27-.64-.59-.89-.95-.34-.49-.58-1.04-.72-1.62v-.14h0v-.07h0c-.05-.29-.08-.58-.08-.87,0-.28.02-.56.07-.84h0s0-.03,0-.05v-.08h0c.14-.67.42-1.3.82-1.84.26-.36.58-.67.93-.93h0c.52-.39,1.12-.65,1.74-.78h.18c.18-.04.36-.07.54-.09h13.33V1.83c0-.59.46-1.07,1.02-1.07h4.88c.48.05.88.42.98.92Z"/>
  <path class="cls-10" d="m8.96,20.96c-.21.04-.43.05-.65.05-.22,0-.43-.02-.65-.05h1.3Z"/>
  <path class="cls-10" d="m4.02,17.24v.07-.05h0v-.03Z"/>
  <path class="cls-6" d="m19.39,12.67c0,.3-.04.6-.12.89-.2.7-.63,1.31-1.21,1.72h0c-.06.04-.12.08-.18.12-.48.29-1.01.44-1.56.45h0c-.56,0-1.11-.15-1.59-.45-.05-.03-.1-.06-.14-.1h0c-.85-.58-1.36-1.57-1.36-2.63,0-.32.04-.64.14-.95.21-.69.65-1.29,1.23-1.69h0c.07-.05.15-.1.23-.14.46-.26.98-.4,1.5-.4h0c.52,0,1.02.14,1.48.4.09.05.18.11.27.16h0c.57.4.99.98,1.19,1.67.09.31.14.63.14.95Z"/>
  <line class="cls-5" x1="9.29" y1="20.92" x2="8.96" y2="20.92"/>
  <path class="cls-8" d="m28.68,13.56h-.07v-.08s.05.06.07.08Z"/>
  <path class="cls-8" d="m28.68,19.08l-.07.1v-.1h.07Z"/>
  <path class="cls-8" d="m29.55,16.32c0,.31-.03.62-.08.92-.13.66-.39,1.28-.78,1.82-.01,0-.03,0-.04,0h-.06v.12h0c-.47.6-1.06,1.07-1.74,1.36h0c-.53.23-1.1.35-1.67.35h-15.88v-.06h0l-.31.06h-1.43c-.63-.12-1.22-.38-1.74-.77h0c-.38-.29-.72-.64-1-1.04-.36-.52-.62-1.12-.75-1.75h0v-.07h0c-.05-.29-.08-.58-.08-.87,0-.3.03-.6.08-.9,0-.01,0-.02,0-.03l.05-.04h1.81s.04.02.04.05c0,0,0,.01,0,.02-.09.28-.13.58-.14.88,0,.31.05.61.14.9.26.79.85,1.41,1.6,1.69v.15h17.67c.6,0,1.18-.21,1.65-.61h0c.37-.32.65-.74.8-1.22.1-.29.14-.59.14-.9,0-.32-.05-.64-.16-.95-.16-.46-.43-.86-.79-1.17h0c-.47-.4-1.05-.61-1.65-.61h-.1v-.05h0l-1.74-.05h0v-1.74s.03-.05.05-.05h1.78c.57,0,1.14.12,1.67.35h0c.68.29,1.28.76,1.74,1.36h0v.11h.06s.03,0,.04,0c.38.54.65,1.16.78,1.82.04.31.05.63.04.95Z"/>
  <path class="cls-8" d="m8.39,19.08h-.87v-.16h0c.28.11.57.16.87.16Z"/>
  <path class="cls-8" d="m25.09,13.56h-1.71s-.05,0-.05-.04h0l1.74.05h0Z"/>
  <path class="cls-8" d="m28.65,19.08s-.05.03-.05.05h0v-.12l.05.06Z"/>
  <path class="cls-8" d="m28.65,13.56h-.06v-.08h0s-.03.05,0,.07c.02.02.05.03.07.01h0Z"/>
  <polygon class="cls-8" points="25.09 13.56 25.09 13.61 25.08 13.61 23.34 13.61 23.34 13.51 25.08 13.56 25.09 13.56"/>
  <path class="cls-2" d="m12.54,11.72c.09-.12.18-.24.25-.35v.35h-.25Z"/>
  <path class="cls-3" d="m14.42,17.24h.12v.05l-.12-.05Z"/>
  <path class="cls-2" d="m21.05,12.64c0,.31-.03.62-.08.92-.11.66-.36,1.29-.71,1.84-.13.21-.29.42-.45.61-.46.53-1.02.96-1.65,1.24l-.09.03h0v-1.88h-.18c-.48.29-1.01.44-1.56.45h0c-.56,0-1.11-.15-1.59-.45h-.16v-.1c-.85-.58-1.36-1.57-1.36-2.63,0-.32.04-.64.14-.95.21-.69.65-1.29,1.23-1.69v-.15h.24c.46-.26.98-.4,1.5-.4h0c.52,0,1.02.14,1.48.4h.27v-1.88h0l.09.04c.63.28,1.19.7,1.65,1.23.17.19.32.4.45.61.36.56.6,1.18.71,1.84.05.31.08.61.08.92Z"/>
  <polyline class="cls-5" points="8.96 20.92 9.28 20.92 9.29 20.92"/>
  <path class="cls-1" d="m16.3,7.64h0c-.6,0-1.19.12-1.74.34v.05h-.12c-.34.15-.65.34-.95.56h0c-.23.19-.45.41-.65.64-.18.2-.34.41-.48.64-.35.56-.6,1.18-.71,1.84-.05.3-.08.61-.08.92v.05c0,.29.03.58.08.86.12.66.36,1.29.71,1.84.14.22.3.44.48.63.45.52,1.01.93,1.63,1.21h.12v.05c.56.22,1.15.34,1.74.34h0c.6,0,1.2-.12,1.76-.35v-1.88h-.18c-.48.29-1.01.44-1.56.45h0c-.56,0-1.11-.15-1.59-.45h-.16v-.1c-.85-.58-1.36-1.57-1.36-2.63,0-.32.04-.64.14-.95.21-.69.65-1.29,1.23-1.69v-.15h.24c.46-.26.98-.4,1.5-.4h0c.52,0,1.02.14,1.48.4h.27v-1.88c-.57-.24-1.18-.36-1.79-.35Zm-3.76,4.08c.09-.12.18-.24.25-.35v.35h-.25Z"/>
</svg>