<svg id="Layer_1" data-name="Layer 1" xmlns="http://www.w3.org/2000/svg" viewBox="0 0 1080 1080"><defs><style>.cls-1{font-size:24px;fill:#fff;font-family:Poppins-Medium, Poppins;font-weight:500;}.cls-11,.cls-2,.cls-4,.cls-6,.cls-7,.cls-9{stroke:#4a6cf7;}.cls-10,.cls-11,.cls-2,.cls-3,.cls-4,.cls-5,.cls-6,.cls-7,.cls-8,.cls-9{stroke-miterlimit:10;}.cls-2,.cls-3,.cls-4{stroke-width:0.06px;}.cls-10,.cls-3,.cls-5,.cls-8{stroke:#000;}.cls-11,.cls-4,.cls-6{fill:#4a6cf7;}.cls-10,.cls-5,.cls-7,.cls-8,.cls-9{fill:none;}.cls-5,.cls-6{stroke-width:0.05px;}.cls-7{stroke-width:0.22px;}.cls-11,.cls-8{stroke-width:0.07px;}.cls-10,.cls-9{stroke-width:0.23px;}</style></defs><text class="cls-1" transform="translate(492.85 566.53)">Sihacov</text><path class="cls-2" d="M464.72,554.42h-.39c.14-.17.27-.35.39-.52Z"/><path class="cls-3" d="M467.44,559.69a1.64,1.64,0,0,0,.22.14h-.24v-.15Z"/><path class="cls-3" d="M467.79,551.71a2.5,2.5,0,0,0-.35.21h0v-.22Z"/><path class="cls-4" d="M472.85,548.87V552c-.13-.08-.27-.17-.41-.24h.41v-2.77a7.18,7.18,0,0,0-2.71-.52h0a7.48,7.48,0,0,0-2.69.5V549h-.19a7.24,7.24,0,0,0-1.46.83h0a7.83,7.83,0,0,0-1,.94,7.46,7.46,0,0,0-.74.94,7.28,7.28,0,0,0-1.1,2.71,7.45,7.45,0,0,0-.12,1.35v.08a6.59,6.59,0,0,0,.12,1.27,7.28,7.28,0,0,0,1.1,2.71,7.37,7.37,0,0,0,.74.93,7.23,7.23,0,0,0,2.51,1.78h.19v.08a7.48,7.48,0,0,0,2.69.5h0a7.18,7.18,0,0,0,2.71-.52v-2.77h-.28a2.61,2.61,0,0,0,.28-.17h0v3h0a7.53,7.53,0,0,1-2.69.52h0a7.41,7.41,0,0,1-2.67-.5h0l-.37-.15a7.49,7.49,0,0,1-2.32-1.65v0l-.16-.16a8.16,8.16,0,0,1-.67-.88,7.31,7.31,0,0,1-1.08-2.71c0-.17-.06-.34-.08-.52a5.37,5.37,0,0,1,0-.7.57.57,0,0,1,0-.13c0-.23,0-.45,0-.67s.06-.46.1-.68a7.31,7.31,0,0,1,1.08-2.71,8.37,8.37,0,0,1,.68-.89l.15-.15v0a8,8,0,0,1,1-.9,7.49,7.49,0,0,1,1.29-.75l.37-.16h0a7.41,7.41,0,0,1,2.67-.5h0a7.53,7.53,0,0,1,2.69.52Z"/><path class="cls-5" d="M451.19,551.71v.12s0-.06,0-.08v0Z"/><path class="cls-6" d="M489.08,539.66v7.76a1.82,1.82,0,0,1-1.81,1.58h-.81a.07.07,0,0,1-.07-.06v-7a1.23,1.23,0,0,0,0-.19,1,1,0,0,0-1-.86h-3.25A1.12,1.12,0,0,0,481,542v1.59h0v1.91a1,1,0,0,1-.95.79h-21.9a7.49,7.49,0,0,0-1.54.28h0l-.06,0-.24.1-.08,0h0l-.09,0-.09.05-.08,0-.07,0a4.74,4.74,0,0,0-.51.37l-.06.05-.08.08a3.88,3.88,0,0,0-.39.42l0,.07a2.25,2.25,0,0,0-.24.36l-.06.09-.05.1a245858274176,245858274176,0,0,1-.1.2,2.88,2.88,0,0,0-.13.31v0l-.08.24s0,.06,0,.09a3.58,3.58,0,0,0-.13.86.92.92,0,0,0,0,.16v0a4.17,4.17,0,0,0,.22,1.33h0a4,4,0,0,0,2.47,2.48h0l.92.2h0l.09,0h.48a4.28,4.28,0,0,0,1.19-.17V557l0,0-.44.08h-2l-.21,0h0a6.77,6.77,0,0,1-2.66-1.12.06.06,0,0,1,0-.06v0h0l-.13-.1,0,0a.06.06,0,0,1-.08,0,6.68,6.68,0,0,1-1.37-1.39,7,7,0,0,1-1.11-2.38c0-.07,0-.14,0-.21h0v-.11h0a6.77,6.77,0,0,1-.12-1.28,7.12,7.12,0,0,1,.11-1.23h0a.64.64,0,0,0,0-.07l0-.12h0a6.82,6.82,0,0,1,1.26-2.71,6.64,6.64,0,0,1,1.43-1.37h0a6.73,6.73,0,0,1,2.69-1.14l.21,0,.07,0a5.74,5.74,0,0,1,.83-.13h20.55v0a.05.05,0,0,0,0,0v-3.78a1.57,1.57,0,0,1,1.57-1.57h7.53A1.73,1.73,0,0,1,489.08,539.66Z"/><path class="cls-5" d="M458.81,568a6.4,6.4,0,0,1-1,.08,6.63,6.63,0,0,1-1-.08Z"/><path class="cls-5" d="M451.19,562.54v.11s0,0,0-.07v0Z"/><path class="cls-7" d="M474.9,555.81a4.37,4.37,0,0,1-.19,1.31,4.69,4.69,0,0,1-1.86,2.53h0a2.61,2.61,0,0,1-.28.17,4.91,4.91,0,0,1-2.41.66h0a4.83,4.83,0,0,1-2.45-.66,1.64,1.64,0,0,1-.22-.14h0a4.62,4.62,0,0,1-2.1-3.87,4.5,4.5,0,0,1,.21-1.39,4.71,4.71,0,0,1,1.89-2.49h0a2.5,2.5,0,0,1,.35-.21,4.9,4.9,0,0,1,2.32-.59h0a4.89,4.89,0,0,1,2.28.59c.14.07.28.16.41.24v0a4.61,4.61,0,0,1,1.84,2.45A4.5,4.5,0,0,1,474.9,555.81Z"/><line class="cls-8" x1="459.32" y1="567.95" x2="458.81" y2="567.95"/><path class="cls-6" d="M489.21,557.12h-.11V557A1.34,1.34,0,0,0,489.21,557.12Z"/><path class="cls-6" d="M489.21,565.24l-.11.15v-.15Z"/><path class="cls-6" d="M490.56,561.18a7.56,7.56,0,0,1-.13,1.36,6.68,6.68,0,0,1-1.2,2.67.07.07,0,0,1-.06,0h-.09v.17h0a6.84,6.84,0,0,1-2.69,2h0a6.67,6.67,0,0,1-2.58.51H459.32v-.09h0l-.48.09h-2l-.21,0h0a6.71,6.71,0,0,1-2.69-1.13h0a7,7,0,0,1-1.54-1.53,6.71,6.71,0,0,1-1.15-2.58h0v-.11h0a6.85,6.85,0,0,1-.12-1.28,6.42,6.42,0,0,1,.13-1.32.09.09,0,0,1,0-.05l.07-.06h2.79a.07.07,0,0,1,.06.1,4.2,4.2,0,0,0-.21,1.29,4.15,4.15,0,0,0,.22,1.32,4.07,4.07,0,0,0,2.47,2.48v.22h27.24a4,4,0,0,0,2.54-.9h0a4.09,4.09,0,0,0,1.24-1.79,3.89,3.89,0,0,0,.22-1.32,4,4,0,0,0-.24-1.39,4.08,4.08,0,0,0-1.22-1.72h0a4,4,0,0,0-2.54-.9h-.15v-.08h0l-2.69-.07h0v-2.56a.08.08,0,0,1,.08-.07h2.74a6.67,6.67,0,0,1,2.58.51h0a6.75,6.75,0,0,1,2.69,2h0v.16h.09a.07.07,0,0,1,.06,0,6.72,6.72,0,0,1,1.2,2.68A7.53,7.53,0,0,1,490.56,561.18Z"/><path class="cls-6" d="M457.93,565.24h-1.34V565h0A3.85,3.85,0,0,0,457.93,565.24Z"/><path class="cls-6" d="M483.68,557.12h-2.63s-.07,0-.07-.06h0l2.69.07Z"/><path class="cls-6" d="M489.17,565.24a.08.08,0,0,0-.07.08v0a.08.08,0,0,1,0,0v-.17Z"/><path class="cls-6" d="M489.17,557.12h-.09V557a.08.08,0,0,1,0,0v0A.07.07,0,0,0,489.17,557.12Z"/><polygon class="cls-6" points="483.68 557.12 483.68 557.2 483.67 557.2 480.98 557.2 480.98 557.05 483.67 557.12 483.68 557.12"/><path class="cls-9" d="M464.33,554.42c.14-.17.27-.35.39-.52v.52Z"/><path class="cls-10" d="M467.23,562.54h.19v.08Z"/><path class="cls-9" d="M477.46,555.77a7.53,7.53,0,0,1-.12,1.35,7.12,7.12,0,0,1-1.1,2.71,6.69,6.69,0,0,1-.7.89,7.26,7.26,0,0,1-2.55,1.82l-.14.05h0v-2.77h-.28a4.91,4.91,0,0,1-2.41.66h0a4.83,4.83,0,0,1-2.45-.66h-.24v-.15a4.62,4.62,0,0,1-2.1-3.87,4.5,4.5,0,0,1,.21-1.39,4.71,4.71,0,0,1,1.89-2.49v-.22h.37a4.9,4.9,0,0,1,2.32-.59h0a4.89,4.89,0,0,1,2.28.59h.41v-2.77h0l.14.06a7.37,7.37,0,0,1,2.55,1.81,6.78,6.78,0,0,1,.7.9,7.12,7.12,0,0,1,1.1,2.71A7.45,7.45,0,0,1,477.46,555.77Z"/><polyline class="cls-8" points="458.81 567.95 459.3 567.95 459.32 567.95"/><path class="cls-11" d="M470.13,548.42h0a7.48,7.48,0,0,0-2.69.5V549h-.19a7.24,7.24,0,0,0-1.46.83h0a7.83,7.83,0,0,0-1,.94,7.46,7.46,0,0,0-.74.94,7.28,7.28,0,0,0-1.1,2.71,7.45,7.45,0,0,0-.12,1.35v.08a6.59,6.59,0,0,0,.12,1.27,7.28,7.28,0,0,0,1.1,2.71,7.37,7.37,0,0,0,.74.93,7.23,7.23,0,0,0,2.51,1.78h.19v.08a7.48,7.48,0,0,0,2.69.5h0a7.18,7.18,0,0,0,2.71-.52v-2.77h-.28a4.91,4.91,0,0,1-2.41.66h0a4.83,4.83,0,0,1-2.45-.66h-.24v-.15a4.62,4.62,0,0,1-2.1-3.87,4.5,4.5,0,0,1,.21-1.39,4.71,4.71,0,0,1,1.89-2.49v-.22h.37a4.9,4.9,0,0,1,2.32-.59h0a4.89,4.89,0,0,1,2.28.59h.41v-2.77A7.18,7.18,0,0,0,470.13,548.42Zm-5.8,6c.14-.17.27-.35.39-.52v.52Z"/></svg>